# xmcd
#
# Track frame offsets: 
#        150
#        12304
#        23511
#        34813
#        45670
#        57288
#        68118
#        79359
#        89156
#        99618
#        110967
#        121391
#        132620
#        143658
#        153239
#        162513
#        174210
#        185339
#        194603
#        206994
#        217460
#        229366
#        240621
#        251652
#
# Disc length: 3479 seconds
#
# Revision: 0
# Processed by: cddbd v1.5.2PL0 Copyright (c) Steve Scherf et al.
# Submitted via: ExactAudioCopyFreeDBPlugin 1.0
#
DISCID=6e0d9518
DTITLE=Buck Owens - Under His Spell - CD 2
DYEAR=1900
DGENRE=Country
TTITLE0=Foolin' Around
TTITLE1=Heartaches For A Dime
TTITLE2=Heartaches By The Number
TTITLE3=Let's Agree To Disagree
TTITLE4=Keeper Of The Key
TTITLE5=I Don't Believe I'll Fall In Love Today
TTITLE6=Pick My Up On Your Way Down
TTITLE7=I'll Catch You When I Fall
TTITLE8=Lyin' Around
TTITLE9=One You Slip Around With
TTITLE10=Think It Over
TTITLE11=Key In The Mailbox
TTITLE12=Above And Beyond The Call Of Love
TTITLE13=Second Fiddle
TTITLE14=Tired Of Living
TTITLE15=I've Got A Right To Know
TTITLE16=Excuse Me (I Think I've Got A Heartache)
TTITLE17=I'll Give My Heart To You
TTITLE18=Under Your Spell Again
TTITLE19=My EverlastingLove
TTITLE20=Take Me Back Again
TTITLE21=Till These Dreams Come True
TTITLE22=Walk The Floor
TTITLE23=I'll Take A Chance On Loving You
EXTD=
EXTT0=
EXTT1=
EXTT2=
EXTT3=
EXTT4=
EXTT5=
EXTT6=
EXTT7=
EXTT8=
EXTT9=
EXTT10=
EXTT11=
EXTT12=
EXTT13=
EXTT14=
EXTT15=
EXTT16=
EXTT17=
EXTT18=
EXTT19=
EXTT20=
EXTT21=
EXTT22=
EXTT23=
PLAYORDER=
